<svg xmlns="http://www.w3.org/2000/svg" width="55.959" height="40.84" viewBox="0 0 55.959 40.84"><defs><style>.a{fill:#fff;fill-rule:evenodd;}</style></defs><g transform="translate(-1.893 -10.026)"><g transform="translate(1.893 10.026)"><path class="a" d="M43.668,34.395h-.717q-18.468,0-36.935,0a4.051,4.051,0,0,1-4-2.939,3.8,3.8,0,0,1,2.085-4.461,5.019,5.019,0,0,1,2.018-.443q18.419-.038,36.838-.019h.7c-.188-.194-.308-.324-.436-.447-3.239-3.112-6.487-6.214-9.711-9.336a3.852,3.852,0,0,1,1.753-6.541,4.024,4.024,0,0,1,4.034.939q8.745,8.3,17.45,16.649a3.778,3.778,0,0,1-.053,5.384c-.56.566-1.151,1.106-1.729,1.658q-7.751,7.4-15.506,14.8a4.235,4.235,0,0,1-6.677-.905,3.828,3.828,0,0,1,.8-4.691q4.8-4.59,9.607-9.171C43.33,34.74,43.457,34.606,43.668,34.395Z" transform="translate(-1.893 -10.026)"/></g></g></svg>