<svg xmlns="http://www.w3.org/2000/svg" width="50.666" height="37.98" viewBox="0 0 50.666 37.98"><g transform="translate(-6.969 41.856) rotate(-90)"><g transform="translate(6.251 4.067)"><g transform="translate(3.427 11.292)"><path d="M33.318,42.276c-1.068-.549-2.143-1.149-3.2-1.782l.969-1.615c1.02.612,2.06,1.192,3.089,1.723Zm-6.271-3.767c-.991-.685-1.981-1.414-2.943-2.169l1.162-1.481c.932.732,1.892,1.438,2.851,2.1ZM21.3,34c-.906-.8-1.8-1.64-2.668-2.493l1.324-1.34c.84.83,1.711,1.644,2.591,2.421ZM16.1,28.872c-.8-.887-1.606-1.818-2.379-2.766l1.459-1.191c.753.923,1.532,1.828,2.315,2.691Zm-4.611-5.65c-.712-.97-1.413-1.976-2.084-2.991l1.573-1.039c.653.99,1.335,1.97,2.029,2.915ZM7.476,17.143c-.615-1.038-1.216-2.106-1.786-3.174l1.663-.885c.556,1.043,1.141,2.086,1.743,3.1ZM4.051,10.717C3.538,9.642,3.036,8.526,2.558,7.4l1.735-.736c.467,1.1.959,2.193,1.459,3.244ZM1.208,4.02C.787,2.9.38,1.744,0,.59L1.787,0c.373,1.13.771,2.259,1.185,3.357Z" transform="translate(-2 0)"/></g></g><g transform="translate(0 0)"><path d="M1.762,8.642,0,8.024,2.814,0,9.767,5.361,8.628,6.839,3.721,3.056Z" transform="translate(3.876 6.969)"/></g></g></svg>