<svg xmlns="http://www.w3.org/2000/svg" width="42.171" height="49.666" viewBox="0 0 42.171 49.666"><g transform="matrix(0.966, -0.259, 0.259, 0.966, -50.57, -37.563)"><path d="M67.2,83.7c-.057.448-.128.891-.2,1.328-.3,1.881-.577,3.669.1,5.249-.581.237-1.555.62-2.567,1.019-5.661,2.227-11.274,4.474-13.291,5.7a6.883,6.883,0,0,1-.624-1.767A30.718,30.718,0,0,0,52.1,86.018a19.9,19.9,0,0,0,.235-6.553c2.3,4.581,4.471,9.281,4.462,13.283a8.233,8.233,0,0,0,4.51-4.9A27.315,27.315,0,0,0,62.7,81.464c.713-4.391-.346-7.589-.031-10.973.061.1.12.194.186.284.638.872,1.206,1.615,1.706,2.269C67.4,76.766,68,77.54,67.2,83.7M49.947,84.97a38.987,38.987,0,0,0-2.635-5.839c-1.988-3.8-2.929-5.859-.763-7.154a14.25,14.25,0,0,0,1.812-.9q.294.807.67,1.645c.939,2.1,2.1,4.332,3.234,6.592-.081,1.523-1.117,3.672-2.319,5.651m7.028-20.38a13.443,13.443,0,0,1,2.484-1.643,17.69,17.69,0,0,0,2.021-1.255c-.242,2.308-.368,6.257,1.129,8.708-.7,4.059-.114,7.175-1.311,10.226a49.011,49.011,0,0,0-2.145-4.669c-1.544-2.762-2.06-7.173-2.444-9.3-.109-.608-.194-1.135-.258-1.6.175-.154.344-.3.524-.464M63.726,59.1c.22-.384.447-.433.621-.433a2.8,2.8,0,0,1,1.541.823,21.1,21.1,0,0,1,1.43,2.217,25.513,25.513,0,0,0-4.285,1.71c-.056.038-.109.078-.161.116a11.352,11.352,0,0,1,.853-4.432m4.7,24.769c.864-6.672.071-7.71-2.883-11.573-.5-.65-1.06-1.386-1.69-2.248a8.574,8.574,0,0,1-1.25-4.438l.165-.263a3.837,3.837,0,0,1,.976-.914,31.486,31.486,0,0,1,4.68-1.78l.733-.232-.38-.667a29.059,29.059,0,0,0-1.973-3.1,3.933,3.933,0,0,0-2.461-1.231,1.894,1.894,0,0,0-1.7,1.06c-.055.1-.1.2-.153.307l-.643.821a9.069,9.069,0,0,1-3,2.256A15.255,15.255,0,0,0,56.3,63.542c-.113-2.368.744-1.817,1.17-3.619a16.728,16.728,0,0,0-2.305.476c-7.267,1.329-8.481,4.951-7.194,9.471a13.836,13.836,0,0,1-1.892.96l-.107.049c-3.354,1.951-1.607,5.292.242,8.83a26.018,26.018,0,0,1,2.58,7.055c-.718,1.05-1.4,1.955-1.894,2.544C43,82.919,40.81,75.713,43.689,72.885c.055-.693-5.44,2.409-5.948,3.665-3.379,9.39,5.392,8.778,5.826,18.1a44.884,44.884,0,0,0,5.523-3.945,14.313,14.313,0,0,1-.225,1.956,12.386,12.386,0,0,0,.652,6.611l.514.935,1.453-1.292c1.006-.968,9.906-5.484,13.5-6.463,3.573-.973,3.448-1.356,3.555-1.682l.092-.279-.154-.247c-.832-1.334-.563-3.043-.252-5.023.07-.449.141-.9.2-1.361"/></g></svg>