<svg xmlns="http://www.w3.org/2000/svg" width="34.753" height="34.572" viewBox="0 0 34.753 34.572"><g transform="translate(-106.093 -214)"><path d="M107.3,230.128a2.5,2.5,0,0,0-1.207,1.67c-.027.381.853,1.035,1.443,1.234,2.4.808,4.856,1.416,7.234,2.269a2.536,2.536,0,0,1,1.371,1.643c.472,2.786.726,5.609,1.135,8.4a6.291,6.291,0,0,0,.762,1.652,6.386,6.386,0,0,0,1.488-1.035c1.416-1.87,2.75-3.812,4.311-6,2.487,2.55,4.783,4.919,7.107,7.261,1.988,2.006,2.832,1.806,3.5-.871,2.641-10.61,6.4-32.357,6.4-32.357S118.093,224.229,107.3,230.128Zm24.261,14.622c-2.8-2.786-5.364-5.355-8.051-8.023,3.494-4.865,10.8-14.867,10.719-14.976-1.407.971-3.276,1.924-4.665,2.923-3.685,2.632-7.388,5.246-11.037,7.933a3.2,3.2,0,0,1-3.413.535c-1.389-.563-2.868-.917-4.765-1.507L139.122,216.3C136.7,225.981,133.921,235.284,131.562,244.75Z" transform="translate(0)"/></g></svg>