<svg xmlns="http://www.w3.org/2000/svg" width="47.711" height="47.721" viewBox="0 0 47.711 47.721"><g transform="translate(0 3.573)"><g transform="translate(0 0)"><path d="M40.875,57.519,37.85,60.543a.949.949,0,1,0,1.342,1.341l3.025-3.024a.949.949,0,0,0-1.342-1.341Z" transform="translate(-34.184 -21.41)"/><path d="M34.823,63.7l-.545.545a.949.949,0,0,0,1.342,1.341l.545-.545A.949.949,0,0,0,34.823,63.7Z" transform="translate(-34 -21.727)"/><path d="M69.625,70.327l-.324-7.8A44.687,44.687,0,0,0,82.879,40.874l1.295-4.839a1.586,1.586,0,0,0-.421-1.554,1.551,1.551,0,0,0-1.554-.421l-4.855,1.295A44.6,44.6,0,0,0,55.708,48.933l-7.8-.34a4.465,4.465,0,0,0-3.884,2.055l-7.25,11.458a1.6,1.6,0,0,0,1.359,2.476,1.568,1.568,0,0,0,.842-.227l5.162-3.14a12.833,12.833,0,0,1,4.564-1.7,41.568,41.568,0,0,0-2.363,6.15,1.593,1.593,0,0,0,.4,1.6l4.224,4.224a1.629,1.629,0,0,0,1.149.469,1.462,1.462,0,0,0,.453-.065,41.57,41.57,0,0,0,6.15-2.363,12.833,12.833,0,0,1-1.7,4.564l-3.14,5.146a1.626,1.626,0,0,0,1.376,2.476,1.715,1.715,0,0,0,.874-.259l11.458-7.25A4.435,4.435,0,0,0,69.625,70.327ZM69.464,48.77a3.236,3.236,0,1,1,4.577,0A3.236,3.236,0,0,1,69.464,48.77Z" transform="translate(-36.518 -37.572)"/></g></g></svg>