<svg xmlns="http://www.w3.org/2000/svg" width="42.923" height="41.005" viewBox="0 0 42.923 41.005"><g transform="translate(-6.5 -3.5)"><g transform="translate(6.5 3.5)"><path d="M29.95,956.13l-5.2,3.421-5.2-3.421a1.171,1.171,0,0,0-1.388-.041l-5.92,4.878a.855.855,0,0,0-.324.648V985.8H10.94a4.355,4.355,0,0,0-3.022,1.378A4.345,4.345,0,0,0,6.5,990.214c0,2.669,2.288,6.652,4.44,6.652H43.5a6.577,6.577,0,0,0,4.271-1.475,4.975,4.975,0,0,0,1.65-3.79V961.587a.854.854,0,0,0-.324-.662l-5.92-4.823a1.116,1.116,0,0,0-1.357.027c-1.789,1.6-3.522,1.822-5.227,3.421l-5.2-3.421a1.117,1.117,0,0,0-1.449,0Zm-11.178,1.847,5.257,3.476a1.117,1.117,0,0,0,1.449,0l5.2-3.421,5.2,3.421a1.117,1.117,0,0,0,1.418.028c1.809-1.617,3.566-1.865,5.288-3.476l4.872,3.969V991.6a3.24,3.24,0,0,1-1.064,2.536,4.217,4.217,0,0,1-2.883.965c-.879,0-2.467-3.1-2.467-4.888a2.653,2.653,0,0,1,2.467-2.646.888.888,0,1,0,0-1.764H13.9V962Z" transform="translate(-6.5 -955.862)"/></g></g></svg>