<svg xmlns="http://www.w3.org/2000/svg" width="30.024" height="21.912" viewBox="0 0 30.024 21.912"><defs><style>.a{fill:#a6c3be;fill-rule:evenodd;}</style></defs><g transform="translate(-1.893 -10.026)"><g transform="translate(1.893 10.026)"><path class="a" d="M24.307,23.1H4.105a2.174,2.174,0,0,1-2.144-1.577A2.04,2.04,0,0,1,3.081,19.13a2.693,2.693,0,0,1,1.083-.238q9.883-.02,19.765-.01H24.3c-.1-.1-.165-.174-.234-.24-1.738-1.67-3.48-3.334-5.211-5.009a2.067,2.067,0,0,1,.94-3.509,2.159,2.159,0,0,1,2.165.5q4.692,4.455,9.363,8.933a2.027,2.027,0,0,1-.028,2.889c-.3.3-.618.593-.928.89q-4.159,3.971-8.32,7.939a2.272,2.272,0,0,1-3.583-.486,2.054,2.054,0,0,1,.432-2.517q2.574-2.463,5.155-4.92C24.126,23.286,24.194,23.214,24.307,23.1Z" transform="translate(-1.893 -10.026)"/></g></g></svg>