<svg xmlns="http://www.w3.org/2000/svg" width="34.432" height="34.432" viewBox="0 0 34.432 34.432"><path d="M17.216,0c-4.677,0-5.261.022-7.1.1A12.7,12.7,0,0,0,5.939.9a8.431,8.431,0,0,0-3.05,1.986A8.4,8.4,0,0,0,.9,5.939a12.657,12.657,0,0,0-.8,4.179c-.086,1.836-.1,2.42-.1,7.1s.022,5.261.1,7.1a12.7,12.7,0,0,0,.8,4.179,8.443,8.443,0,0,0,1.986,3.05,8.419,8.419,0,0,0,3.05,1.986,12.71,12.71,0,0,0,4.179.8c1.836.086,2.42.1,7.1.1s5.261-.022,7.1-.1a12.74,12.74,0,0,0,4.179-.8,8.8,8.8,0,0,0,5.036-5.036,12.7,12.7,0,0,0,.8-4.179c.086-1.836.1-2.42.1-7.1s-.022-5.261-.1-7.1a12.732,12.732,0,0,0-.8-4.179,8.45,8.45,0,0,0-1.986-3.05A8.388,8.388,0,0,0,28.492.9,12.665,12.665,0,0,0,24.313.1C22.477.017,21.893,0,17.216,0Zm0,3.1c4.6,0,5.143.023,6.958.1a9.485,9.485,0,0,1,3.195.6,5.665,5.665,0,0,1,3.268,3.267,9.505,9.505,0,0,1,.593,3.195c.082,1.816.1,2.361.1,6.958s-.022,5.143-.106,6.958a9.688,9.688,0,0,1-.6,3.195,5.466,5.466,0,0,1-1.29,1.983,5.371,5.371,0,0,1-1.98,1.285,9.575,9.575,0,0,1-3.206.593c-1.828.082-2.366.1-6.971.1s-5.145-.022-6.971-.106a9.762,9.762,0,0,1-3.208-.6,5.331,5.331,0,0,1-1.978-1.29,5.227,5.227,0,0,1-1.291-1.98,9.77,9.77,0,0,1-.6-3.206c-.065-1.808-.088-2.366-.088-6.949s.023-5.145.088-6.974a9.759,9.759,0,0,1,.6-3.205A5.1,5.1,0,0,1,5.016,5.034,5.092,5.092,0,0,1,6.994,3.746a9.529,9.529,0,0,1,3.186-.6c1.829-.065,2.367-.086,6.971-.086l.065.043Zm0,5.277a8.84,8.84,0,1,0,8.84,8.84,8.84,8.84,0,0,0-8.84-8.84Zm0,14.579a5.739,5.739,0,1,1,5.739-5.739A5.737,5.737,0,0,1,17.216,22.954ZM28.472,8.027a2.066,2.066,0,1,1-2.066-2.064A2.067,2.067,0,0,1,28.472,8.027Z"/></svg>