<?xml version="1.0" encoding="utf-8"?>
<!-- Generator: Adobe Illustrator 23.0.3, SVG Export Plug-In . SVG Version: 6.00 Build 0)  -->
<svg version="1.1" id="圖層_1" xmlns="http://www.w3.org/2000/svg" xmlns:xlink="http://www.w3.org/1999/xlink" x="0px" y="0px"
	 viewBox="0 0 120.3 103" style="enable-background:new 0 0 120.3 103;" xml:space="preserve">
<style type="text/css">
	.st0{fill:#FFFFFF;}
</style>
<path d="M120.3,78.9L104,1.7c-0.2-1-1.1-1.7-2.1-1.7h-93c0,0,0,0-0.1,0c0,0-0.1,0-0.1,0h0h0l0,0c0,0-0.1,0-0.1,0l0,0h0l0,0l-0.1,0
	l-0.1,0l0,0h0c0,0-0.1,0-0.1,0L8,0.2l0,0l0,0c0,0-0.1,0-0.1,0l-0.1,0l0,0l-0.1,0l-0.1,0l0,0l-0.1,0l-0.1,0l0,0l0,0L0.7,6.9
	C0.2,7.3,0,7.8,0,8.4v92.5c0,1.2,0.9,2.1,2.1,2.1h92.5c0.5,0,1.1-0.2,1.4-0.6l6.7-6.3l0,0c0,0,0.1-0.1,0.1-0.1s0,0,0.1-0.1
	s0-0.1,0.1-0.1s0,0,0.1-0.1s0-0.1,0.1-0.1s0,0,0-0.1c0,0,0-0.1,0.1-0.1l0-0.1c0,0,0-0.1,0.1-0.1c0,0,0,0,0-0.1c0,0,0-0.1,0-0.1
	c0,0,0,0,0-0.1c0,0,0-0.1,0-0.1c0,0,0-0.1,0-0.1s0-0.1,0-0.1s0-0.1,0-0.1c0,0,0,0,0,0s0,0,0,0v-3.9h8.6c1.2,0,2.1-0.9,2.1-2.1
	c0-0.1,0-0.3,0-0.4l-0.8-6.5h4.9c1.2,0,2.1-0.9,2.1-2.1l0,0C120.3,79.3,120.3,79.1,120.3,78.9z M18.2,86.4l-5.7-65.9l11.2,38.4
	c0,0.1,0,0.1,0.1,0.2c3.2,8.2,17.4,19.6,24.7,22.4c0.2,0.1,0.5,0.1,0.7,0.1H109l0.6,4.8L18.2,86.4L18.2,86.4z M45.8,75.4
	c-5.4-3.3-10.3-7.5-14.5-12.3c4.4,0.9,8.8,1.2,13.3,0.9C44.5,67.8,44.9,71.7,45.8,75.4L45.8,75.4z M51,77.4
	c-2.8-6-2.1-15.4-2.1-15.5c0.1-1.2-0.8-2.2-1.9-2.3c-0.1,0-0.3,0-0.4,0c-3.6,0.4-13.9,0.7-18.9-2.4L12.2,4.2h88l15.4,73.1L51,77.4z"
	/>
<path class="st0" d="M51,77.4c-2.8-6-2.1-15.4-2.1-15.5c0.1-1.2-0.8-2.2-1.9-2.3c-0.1,0-0.3,0-0.4,0c-3.6,0.4-13.9,0.7-18.9-2.4
	L12.2,4.2h88l15.4,73.1L51,77.4z"/>
<path class="st0" d="M45.8,75.4c-5.4-3.3-10.3-7.5-14.5-12.3c4.4,0.9,8.8,1.2,13.3,0.9C44.5,67.8,44.9,71.7,45.8,75.4L45.8,75.4z"/>
<path class="st0" d="M18.2,86.4l-5.7-65.9l11.2,38.4c0,0.1,0,0.1,0.1,0.2c3.2,8.2,17.4,19.6,24.7,22.4c0.2,0.1,0.5,0.1,0.7,0.1H109
	l0.6,4.8L18.2,86.4L18.2,86.4z"/>
</svg>
